<?xml version="1.0" encoding="UTF-8"?>
<svg version="1.1" xmlns="http://www.w3.org/2000/svg" width="128" height="128">
<path d="M0 0 C42.24 0 84.48 0 128 0 C128 42.24 128 84.48 128 128 C85.76 128 43.52 128 0 128 C0 85.76 0 43.52 0 0 Z " fill="#FEFEFE" transform="translate(0,0)"/>
<path d="M0 0 C3.3 0 6.6 0 10 0 C10 16.17 10 32.34 10 49 C7.36 49 4.72 49 2 49 C1.34 47.68 0.68 46.36 0 45 C-0.94875 45.66 -1.8975 46.32 -2.875 47 C-7.44525645 49.59166982 -11.86242562 50.01009937 -17 49 C-20.87139378 46.1771087 -22.52367909 43.48099167 -24 39 C-25.30314317 22.78801542 -25.30314317 22.78801542 -20.625 17.125 C-16.41606336 13.71776558 -12.25237827 13.45728491 -7 14 C-5.02 14.66 -3.04 15.32 -1 16 C-0.67 10.72 -0.34 5.44 0 0 Z " fill="#1F2D4F" transform="translate(52,39)"/>
<path d="M0 0 C3.3 0 6.6 0 10 0 C10.33 12.54 10.66 25.08 11 38 C17.27 38.33 23.54 38.66 30 39 C30 41.64 30 44.28 30 47 C25.87580148 48.37473284 22.00748491 48.22391707 17.6875 48.25 C16.84509766 48.270625 16.00269531 48.29125 15.13476562 48.3125 C10.00777749 48.34456873 6.40501184 47.92301561 2 45 C-0.06037303 41.90944045 -0.24799242 41.29073838 -0.22705078 37.80395508 C-0.22689972 36.96331009 -0.22674866 36.1226651 -0.22659302 35.25654602 C-0.21627045 34.35333115 -0.20594788 33.45011627 -0.1953125 32.51953125 C-0.1924826 31.59154221 -0.18965271 30.66355316 -0.18673706 29.70744324 C-0.17553836 26.74233121 -0.15043435 23.77752079 -0.125 20.8125 C-0.1149698 18.80273874 -0.10584402 16.79297274 -0.09765625 14.78320312 C-0.07560004 9.85535247 -0.04107229 4.92772738 0 0 Z " fill="#1B2A4C" transform="translate(71,40)"/>
<path d="M0 0 C3.5625 0.4375 3.5625 0.4375 7.5625 2.4375 C7.5625 7.7175 7.5625 12.9975 7.5625 18.4375 C3.30104842 20.56822579 1.233655 20.94708055 -3.4375 20.4375 C-5.6222027 18.26288831 -6.3708697 16.87582287 -6.8359375 13.81640625 C-6.80156203 9.68562067 -6.68853941 6.19061823 -5.375 2.25 C-3.4375 0.4375 -3.4375 0.4375 0 0 Z " fill="#EEEFF0" transform="translate(44.4375,59.5625)"/>
</svg>
